<?xml version="1.0" encoding="utf-8"?>
<!-- Generator: Adobe Illustrator 15.0.0, SVG Export Plug-In . SVG Version: 6.00 Build 0)  -->
<!DOCTYPE svg PUBLIC "-//W3C//DTD SVG 1.1//EN" "http://www.w3.org/Graphics/SVG/1.1/DTD/svg11.dtd">
<svg version="1.1" id="Layer_1" xmlns="http://www.w3.org/2000/svg" xmlns:xlink="http://www.w3.org/1999/xlink" x="0px" y="0px"
	 width="628.419px" height="591.162px" viewBox="205.104 59.81 628.419 591.162"
	 enable-background="new 205.104 59.81 628.419 591.162" xml:space="preserve">
<g id="Layer_1_1_">
</g>
<g id="Layer_2">
</g>
<g id="Layer_3">
	<g>
		<path fill="#003057" d="M214.857,337.371c0.61,0.305,1.524,0.915,3.353,1.829s3.657,1.523,6.4,2.438
			c2.438,0.915,5.486,1.524,8.838,2.134c3.352,0.609,7.009,0.914,10.667,0.914c3.048,0,5.791-0.305,7.619-0.609
			s3.353-0.914,4.267-1.828c0.914-0.61,1.829-1.524,2.133-2.438s0.609-1.829,0.609-2.743c0-1.828-0.914-3.353-2.438-4.571
			s-4.571-2.133-8.533-3.048l-12.19-2.133c-3.048-0.609-6.4-1.219-9.448-2.438c-3.047-0.914-6.095-2.438-8.533-4.267
			c-2.438-1.828-4.571-4.267-6.095-7.01c-1.524-2.742-2.438-6.399-2.438-10.667c0-3.657,0.609-7.009,2.133-10.362
			c1.219-3.352,3.352-6.095,6.095-8.229c2.743-2.438,6.4-4.267,10.667-5.791s9.143-2.133,14.934-2.133
			c4.267,0,7.619,0.305,10.667,0.609c3.047,0.305,5.791,0.915,7.924,1.524c2.133,0.61,3.962,1.219,5.486,1.829
			c1.523,0.609,2.438,1.219,3.047,1.524c1.219,0.914,2.743,1.829,3.962,3.353c1.219,1.523,1.829,3.047,1.829,4.876
			c0,1.219-0.305,2.743-0.609,3.962c-0.61,1.219-0.915,2.438-1.829,3.353c-0.61,0.914-1.524,1.829-2.133,2.743
			c-0.915,0.609-1.524,1.219-2.133,1.829c-0.915-0.915-2.133-1.829-3.657-2.743c-1.524-0.915-3.353-1.829-5.791-2.743
			c-2.133-0.914-4.876-1.524-7.619-2.133s-5.791-0.914-9.143-0.914c-3.047,0-5.485,0.305-7.314,0.914s-3.048,1.219-3.962,1.829
			c-0.915,0.609-1.524,1.524-1.829,2.438c-0.305,0.915-0.305,1.829-0.305,2.743c0,0.609,0,1.523,0.305,2.133
			c0.305,0.609,0.609,1.219,1.524,1.829c0.609,0.609,1.829,1.219,3.352,1.524c1.524,0.609,3.353,0.914,5.791,1.523l12.495,2.438
			c4.572,0.914,8.229,1.828,11.581,3.353c3.353,1.219,6.095,3.047,8.533,4.876c2.438,1.828,3.962,4.267,5.181,7.01
			c1.219,2.742,1.829,5.79,1.829,9.752c0,8.229-3.048,14.934-9.448,19.505c-6.095,4.571-14.933,7.01-26.209,7.01
			c-5.181,0-9.752-0.306-14.324-1.22s-8.229-1.828-11.276-3.047c-3.352-1.22-5.791-2.134-7.924-3.353
			c-2.133-0.915-3.352-1.829-3.657-2.134L214.857,337.371z"/>
		<path fill="#003057" d="M307.505,338.286c0.305,0.914,0.609,1.828,1.219,2.742c0.61,0.915,1.524,1.829,2.743,2.438
			c1.219,0.914,2.743,1.523,4.571,1.828c1.829,0.609,4.267,0.609,7.01,0.609c2.133,0,3.962-0.305,5.79-0.609
			c1.829-0.305,3.353-0.609,4.876-1.219c1.219-0.305,2.438-0.914,3.353-1.219c0.914-0.305,1.523-0.609,1.523-0.915l6.705,13.41
			c-0.61,0.305-1.829,0.914-3.048,1.523c-1.524,0.609-3.352,1.524-5.486,2.134c-2.133,0.609-4.876,1.219-7.924,1.828
			c-3.047,0.609-6.095,0.914-9.752,0.914c-4.572,0-8.534-0.609-12.496-2.133s-7.314-3.657-10.057-6.096
			c-3.047-2.742-5.181-6.095-6.705-10.057s-2.438-8.533-2.438-13.41c0-4.876,0.914-9.143,2.438-13.104s3.962-7.314,7.009-10.057
			c3.048-2.743,6.4-4.876,10.362-6.4s8.229-2.438,12.8-2.438c4.267,0,8.229,0.609,11.581,1.829c3.353,1.219,6.4,2.743,8.533,4.571
			c2.438,2.134,4.267,4.267,5.486,6.705c1.219,2.438,1.829,5.181,1.829,7.924c0,3.047-0.609,5.485-1.524,7.924
			c-0.914,2.438-2.743,4.267-5.486,6.095c-2.743,1.524-6.4,2.743-10.667,3.657c-4.571,0.914-10.362,1.219-17.372,1.219h-4.876
			V338.286z M306.286,326.096c5.181,0,9.448-0.306,12.495-0.61c3.048-0.305,5.181-0.914,6.4-1.523
			c1.219-0.609,2.438-1.219,2.743-2.134c0.305-0.914,0.609-1.523,0.609-2.438c0-1.524-0.609-3.048-2.133-4.267
			c-1.524-1.22-3.657-1.829-6.705-1.829c-2.133,0-3.962,0.305-5.486,1.22c-1.524,0.609-3.047,1.828-3.962,3.047
			c-1.219,1.22-1.829,2.438-2.438,3.962C306.895,323.048,306.59,324.571,306.286,326.096z"/>
		<path fill="#003057" d="M409.6,355.657c-0.914,0.609-2.133,1.219-3.352,2.133c-1.524,0.915-3.048,1.524-5.182,2.134
			c-2.133,0.609-4.267,1.219-7.009,1.828c-2.743,0.61-5.486,0.915-8.533,0.915c-4.267,0-8.534-0.61-12.496-2.134
			c-3.962-1.219-7.619-3.353-10.667-6.095c-3.047-2.743-5.486-6.096-7.314-10.058c-1.829-3.962-2.743-8.533-2.743-14.019
			c0-5.182,0.915-9.753,2.743-13.715c1.828-3.962,4.267-7.314,7.314-10.057c3.048-2.743,6.705-4.876,10.667-6.096
			c3.962-1.524,8.534-2.133,13.105-2.133c4.267,0,8.229,0.609,11.886,1.524c3.656,0.914,6.399,2.438,8.229,4.267
			c0.914,0.915,1.523,1.829,2.133,2.743c0.609,0.914,0.914,2.133,0.914,3.657c0,1.219-0.305,2.438-0.609,3.657
			c-0.609,1.219-1.219,2.133-1.828,3.047c-0.609,0.915-1.524,1.524-2.134,2.438c-0.609,0.609-1.523,1.219-1.828,1.523
			c-1.524-1.523-3.353-2.742-6.096-3.962c-2.438-1.219-5.485-1.828-9.143-1.828c-2.133,0-3.962,0.305-5.791,0.914
			s-3.353,1.523-4.876,2.743c-1.524,1.219-2.438,2.742-3.353,4.876c-0.915,1.828-1.219,3.962-1.219,6.4
			c0,2.742,0.305,4.876,1.219,6.704c0.914,1.829,1.829,3.353,3.353,4.571c1.523,1.22,3.047,2.134,4.876,2.743
			s3.962,0.914,6.095,0.914c1.829,0,3.657-0.305,5.181-0.609c1.523-0.305,3.047-0.914,3.961-1.219
			c1.22-0.609,2.134-0.914,3.048-1.219c0.914-0.306,1.219-0.915,1.523-0.915L409.6,355.657z"/>
		<path fill="#003057" d="M435.505,332.495c0,8.229,3.657,12.495,11.276,12.495c7.314,0,11.275-4.267,11.275-12.495v-23.771
			c0-3.047,0.915-5.181,2.743-6.4c1.829-1.219,4.267-1.829,7.314-1.829c2.134,0,3.962,0.305,5.79,0.915
			c1.829,0.609,2.743,0.914,3.353,0.914v34.133c0,4.571-0.914,8.229-2.438,11.581c-1.524,3.353-3.657,6.096-6.4,8.229
			c-2.743,2.134-5.79,3.962-9.752,4.876c-3.657,1.22-7.619,1.524-11.886,1.524s-8.229-0.609-11.886-1.524
			c-3.657-0.914-7.01-2.742-9.753-4.876c-2.742-2.133-4.876-4.876-6.399-8.229c-1.524-3.353-2.438-7.01-2.438-11.581v-27.429
			c0-3.047,0.914-5.181,2.743-6.4c1.828-1.219,4.267-1.829,7.314-1.829c2.133,0,3.962,0.305,5.79,0.915s2.743,0.914,3.353,0.914
			V332.495z"/>
		<path fill="#003057" d="M487.924,322.743c0-3.962,0.609-7.314,1.828-10.362c1.22-3.048,3.048-5.485,5.486-7.619
			c2.438-2.133,5.181-3.657,8.229-4.571c3.353-1.219,6.705-1.524,10.666-1.524c4.877,0,8.534,0.61,10.972,1.524
			c2.743,0.915,4.571,2.133,5.791,3.353c0.609,0.914,1.219,1.524,1.523,2.438c0.305,0.915,0.609,1.829,0.609,3.047
			c0,1.22-0.305,2.438-0.609,3.353s-0.914,1.829-1.219,2.743c-0.609,0.914-0.914,1.523-1.524,2.133
			c-0.609,0.609-0.914,0.915-1.219,1.22c-1.219-0.61-3.048-1.22-4.876-1.829c-1.829-0.609-3.962-0.914-6.4-0.914
			c-3.048,0-5.485,0.914-7.619,2.743c-2.133,1.828-3.047,4.571-3.047,8.533v33.828h-19.2v-38.095H487.924z"/>
		<path fill="#003057" d="M555.276,338.286c0.305,0.914,0.609,1.828,1.219,2.742c0.609,0.915,1.524,1.829,2.743,2.438
			c1.219,0.914,2.742,1.523,4.571,1.828c1.828,0.609,4.267,0.609,7.01,0.609c2.133,0,3.962-0.305,5.79-0.609
			c1.829-0.305,3.353-0.609,4.876-1.219c1.22-0.305,2.438-0.914,3.353-1.219s1.524-0.609,1.524-0.915l6.704,13.41
			c-0.609,0.305-1.828,0.914-3.047,1.523c-1.524,0.609-3.353,1.524-5.486,2.134c-2.133,0.609-4.876,1.219-7.924,1.828
			s-6.095,0.914-9.752,0.914c-4.572,0-8.533-0.609-12.496-2.133c-3.961-1.523-7.313-3.657-10.057-6.096
			c-3.048-2.742-5.181-6.095-6.705-10.057c-1.523-3.962-2.438-8.533-2.438-13.41c0-4.876,0.914-9.143,2.438-13.104
			c1.524-3.962,3.962-7.314,7.01-10.057c3.048-2.743,6.4-4.876,10.362-6.4s8.229-2.438,12.8-2.438c4.267,0,8.229,0.609,11.581,1.829
			c3.353,1.219,6.399,2.743,8.533,4.571c2.438,2.134,4.267,4.267,5.485,6.705c1.22,2.438,1.829,5.181,1.829,7.924
			c0,3.047-0.609,5.485-1.524,7.924c-0.914,2.438-2.742,4.267-5.485,6.095c-2.743,1.524-6.4,2.743-10.667,3.657
			c-4.571,0.914-10.361,1.219-17.371,1.219h-4.876V338.286z M554.362,326.096c5.181,0,9.447-0.306,12.495-0.61
			c3.047-0.305,5.181-0.914,6.399-1.523c1.22-0.609,2.438-1.219,2.743-2.134c0.305-0.914,0.609-1.523,0.609-2.438
			c0-1.524-0.609-3.048-2.133-4.267c-1.524-1.22-3.657-1.829-6.705-1.829c-2.134,0-3.962,0.305-5.485,1.22
			c-1.524,0.609-3.048,1.828-3.962,3.047c-1.22,1.22-1.829,2.438-2.438,3.962C554.972,323.048,554.667,324.571,554.362,326.096z"/>
		<path fill="#003057" d="M278.552,451.657c-0.914,0.609-2.133,1.523-3.657,2.438c-1.523,0.914-3.657,1.828-6.095,2.742
			c-2.438,0.914-5.485,1.524-8.533,2.134c-3.353,0.609-7.009,0.914-11.276,0.914c-6.095,0-11.581-0.914-16.762-2.743
			c-5.181-1.828-10.057-4.571-14.019-7.924c-3.962-3.657-7.314-7.924-9.448-13.409c-2.438-5.181-3.657-11.581-3.657-18.591
			c0-7.009,1.219-13.104,3.353-18.285c2.133-5.486,5.486-9.753,9.143-13.41c3.962-3.657,8.533-6.399,13.714-8.533
			c5.181-1.828,10.971-3.048,17.066-3.048c3.353,0,6.095,0.306,8.838,0.61c2.743,0.305,4.876,0.914,7.009,1.523
			s3.657,1.219,5.181,2.133c1.524,0.61,2.438,1.22,3.352,1.829c1.829,1.219,3.048,2.743,3.962,4.267
			c0.915,1.523,1.219,3.048,1.219,4.571c0,1.524-0.305,3.048-0.915,4.267c-0.609,1.22-1.219,2.438-2.133,3.657
			c-0.914,1.219-1.523,1.829-2.438,2.743c-0.914,0.609-1.523,1.219-2.133,1.523c-0.914-0.914-1.829-1.828-3.047-2.742
			c-1.219-0.915-2.743-2.134-4.572-3.048s-3.657-1.524-6.095-2.134c-2.438-0.609-4.876-0.914-7.619-0.914
			c-3.352,0-6.705,0.609-9.447,1.828c-2.743,1.22-5.181,2.743-7.314,4.877c-2.133,2.133-3.657,4.876-4.876,7.924
			c-1.219,3.047-1.829,6.704-1.829,10.361c0,3.962,0.609,7.314,1.829,10.362c1.219,3.048,3.047,5.485,5.181,7.619
			c2.133,2.133,4.876,3.657,7.924,4.571c3.048,0.914,6.4,1.523,10.057,1.523c4.572,0,8.229-0.609,11.581-1.523
			c3.353-1.219,5.791-2.134,7.314-3.353L278.552,451.657L278.552,451.657z"/>
		<path fill="#003057" d="M342.248,457.447c-0.609,0.305-1.524,0.305-3.352,0.61c-1.524,0.305-3.657,0.305-6.096,0.609
			c-2.438,0.305-5.485,0.305-8.533,0.609c-3.353,0.305-6.705,0.305-10.057,0.305c-6.095,0-10.971-0.609-14.933-1.523
			c-3.962-0.915-7.01-2.438-9.448-4.267c-2.438-1.829-3.962-3.963-4.876-6.4c-0.914-2.438-1.523-4.876-1.523-7.619
			c0-7.314,2.438-12.495,7.009-15.543c4.572-3.048,12.19-4.571,22.248-4.571c2.438,0,4.572,0,6.4,0c1.828,0,3.047,0.305,4.267,0.305
			c0-2.743-1.219-4.876-3.353-6.4c-2.133-1.523-6.095-2.438-11.276-2.438c-2.438,0-4.571,0-6.4,0.305s-3.352,0.609-4.876,0.914
			c-1.219,0.305-2.438,0.914-3.048,1.219c-0.914,0.305-1.219,0.61-1.524,0.915c-0.305-0.305-0.609-0.61-0.914-0.915
			c-0.609-0.609-0.914-1.219-1.524-1.828c-0.609-0.609-0.914-1.523-1.219-2.438c-0.305-0.914-0.61-1.828-0.61-3.047
			c0-7.01,7.01-10.362,21.029-10.362c4.571,0,8.838,0.305,13.104,1.219c3.962,0.914,7.619,2.134,10.667,4.267
			c3.047,2.134,5.181,4.571,7.009,7.924s2.438,7.619,2.438,12.495v35.657H342.248z M323.353,432.457
			c-0.61-0.305-1.829-0.305-3.048-0.305c-1.524,0-3.353-0.305-6.095-0.305c-2.438,0-4.267,0.305-5.791,0.609
			s-2.743,0.914-3.657,1.523c-0.914,0.61-1.523,1.524-1.829,2.438c-0.305,0.914-0.609,1.829-0.609,2.743
			c0,0.609,0,1.523,0.305,2.133c0.305,0.914,0.61,1.524,1.524,2.134s1.829,1.219,3.657,1.523c1.524,0.305,3.657,0.609,6.4,0.609
			c2.133,0,3.962,0,5.791-0.305c1.829,0,2.743-0.305,3.353-0.305V432.457z"/>
		<path fill="#003057" d="M353.524,378.515c0-3.048,0.914-5.182,2.743-6.4s4.267-1.828,7.314-1.828c2.133,0,3.962,0.305,5.791,0.914
			s2.743,0.914,3.352,0.914v85.943h-19.2V378.515z"/>
		<path fill="#003057" d="M385.829,380.647c0-3.048,0.914-5.485,3.047-7.619c2.133-2.133,4.572-3.048,7.619-3.048
			c3.048,0,5.485,0.915,7.619,3.048c2.134,2.134,3.048,4.571,3.048,7.619s-0.914,5.486-3.048,7.619
			c-2.134,2.134-4.571,3.048-7.619,3.048c-3.047,0-5.486-0.914-7.619-3.048C387.048,386.438,385.829,383.695,385.829,380.647z
			 M387.048,405.638c0-3.047,0.914-5.181,2.743-6.399s4.267-1.829,7.314-1.829c2.134,0,3.962,0.305,5.791,0.915
			c1.828,0.609,2.742,0.914,3.353,0.914v58.819h-19.2V405.638z"/>
		<path fill="#003057" d="M398.02,465.066c0.914,0.305,1.828,0.915,3.352,1.22c1.524,0.305,3.048,0.609,4.877,0.609
			c2.438,0,4.267-0.609,6.399-1.829c1.829-1.219,3.048-3.353,3.657-6.704l8.533-61.562c0.609-4.876,1.829-9.143,3.657-12.495
			c1.524-3.353,3.657-6.095,6.4-8.229c2.438-2.133,5.485-3.657,8.533-4.571c3.353-0.914,6.704-1.524,10.667-1.524
			c3.352,0,6.095,0.306,8.533,0.915c2.438,0.609,4.267,1.523,6.095,2.438c1.22,0.61,1.829,1.524,2.438,2.438
			s0.914,2.133,0.914,3.657c0,2.133-0.609,3.962-2.133,5.485c-1.524,1.524-2.743,2.743-3.963,3.353
			c-0.914-0.914-2.133-1.523-4.267-2.438c-1.828-0.609-3.962-0.914-6.095-0.914c-3.048,0-5.486,0.914-7.619,2.438
			c-2.133,1.523-3.353,3.962-3.657,7.01l-0.305,2.742h11.886c3.657,0,6.096,0.609,7.619,2.134c1.523,1.523,2.133,3.657,2.133,6.399
			c0,2.134-0.305,3.962-0.914,5.791c-0.609,1.828-1.219,3.048-1.523,3.657h-21.943l-5.79,41.752
			c-0.609,4.876-1.829,9.143-3.657,12.495s-3.962,6.096-6.4,7.924c-2.438,1.829-5.181,3.353-8.229,4.267
			c-3.047,0.915-5.79,1.22-8.838,1.22c-4.267,0-7.924-0.609-10.667-1.524c-3.047-0.914-4.876-1.828-5.485-2.133L398.02,465.066z"/>
		<path fill="#003057" d="M465.98,427.276c0-4.571,0.915-8.838,2.743-12.8c1.829-3.962,4.267-7.314,7.314-10.058
			s6.705-5.181,10.667-6.705c3.962-1.523,8.533-2.438,13.104-2.438s8.838,0.914,13.104,2.438c3.962,1.524,7.619,3.962,10.667,6.705
			s5.485,6.096,7.314,10.058c1.828,3.962,2.742,8.229,2.742,12.8s-0.914,8.838-2.742,12.8c-1.829,3.962-4.267,7.314-7.314,10.058
			c-3.048,2.742-6.705,5.181-10.667,6.704c-3.962,1.524-8.533,2.438-13.104,2.438s-9.143-0.914-13.104-2.438
			c-3.962-1.523-7.619-3.962-10.667-6.704c-3.048-2.743-5.485-6.096-7.314-10.058C466.896,436.114,465.98,431.848,465.98,427.276z
			 M499.505,442.21c2.133,0,3.962-0.306,5.485-1.22c1.829-0.609,3.048-1.828,4.571-3.047c1.22-1.22,2.134-2.743,3.048-4.572
			c0.609-1.828,0.914-3.656,0.914-5.79s-0.305-4.267-0.914-6.096c-0.609-1.828-1.523-3.352-3.048-4.571
			c-1.219-1.219-2.742-2.438-4.571-3.047c-1.828-0.61-3.657-1.22-5.485-1.22c-2.134,0-3.962,0.305-5.485,1.22
			c-1.524,0.609-3.048,1.828-4.268,3.047c-1.219,1.22-2.133,2.743-3.047,4.571c-0.609,1.829-0.915,3.657-0.915,6.096
			c0,2.134,0.306,4.267,0.915,5.79c0.609,1.829,1.523,3.353,3.047,4.572c1.22,1.219,2.743,2.438,4.268,3.047
			C495.543,441.904,497.371,442.21,499.505,442.21z"/>
		<path fill="#003057" d="M541.257,419.657c0-3.962,0.61-7.314,1.829-10.362c1.219-3.047,3.048-5.485,5.485-7.619
			c2.438-2.133,5.181-3.656,8.229-4.571c3.048-0.914,6.705-1.523,10.667-1.523c4.876,0,8.533,0.609,10.972,1.523
			c2.742,0.915,4.571,2.134,5.79,3.353c0.609,0.914,1.219,1.524,1.523,2.438c0.306,0.914,0.61,1.828,0.61,3.048
			c0,1.219-0.306,2.438-0.61,3.352c-0.305,0.915-0.914,1.829-1.219,2.743c-0.609,0.914-0.914,1.523-1.523,2.134
			c-0.609,0.609-0.914,0.914-1.219,1.219c-1.22-0.609-3.048-1.219-4.877-1.829c-1.828-0.609-3.962-0.914-6.399-0.914
			c-3.048,0-5.486,0.914-7.619,2.743c-2.134,1.828-3.048,4.571-3.048,8.533v33.828h-19.2v-38.095H541.257z"/>
		<path fill="#003057" d="M590.324,420.876c0-4.267,0.914-7.924,2.438-10.972c1.524-3.352,3.657-5.79,6.4-7.924
			c2.742-2.133,6.095-3.656,9.752-4.876c3.657-1.219,7.619-1.523,11.886-1.523s7.924,0.609,11.581,1.523
			c3.657,1.22,7.01,2.743,9.752,4.876c2.743,2.134,4.877,4.877,6.4,7.924c1.523,3.353,2.438,7.01,2.438,10.972v36.876h-19.2v-32.305
			c0-4.267-0.914-7.313-2.743-9.447c-1.828-2.134-4.571-3.048-8.229-3.048c-7.314,0-11.276,4.267-11.276,12.495v32.305h-19.199
			V420.876L590.324,420.876z"/>
		<path fill="#003057" d="M661.028,380.647c0-3.048,0.915-5.485,3.048-7.619c2.133-2.133,4.571-3.048,7.619-3.048
			s5.485,0.915,7.619,3.048c2.133,2.134,3.048,4.571,3.048,7.619s-0.915,5.486-3.048,7.619c-2.134,2.134-4.571,3.048-7.619,3.048
			s-5.486-0.914-7.619-3.048C662.248,386.438,661.028,383.695,661.028,380.647z M662.248,405.638c0-3.047,0.914-5.181,2.742-6.399
			c1.829-1.219,4.267-1.829,7.314-1.829c2.134,0,3.962,0.305,5.791,0.915c1.828,0.609,2.742,0.914,3.352,0.914v58.819h-19.199
			V405.638L662.248,405.638z"/>
		<path fill="#003057" d="M751.238,457.447c-0.609,0.305-1.524,0.305-3.353,0.61c-1.829,0.305-3.657,0.305-6.096,0.609
			c-2.438,0.305-5.485,0.305-8.533,0.609s-6.704,0.305-10.057,0.305c-6.096,0-10.972-0.609-14.934-1.523
			c-3.962-1.22-7.01-2.438-9.447-4.267c-2.438-1.829-3.962-3.963-4.877-6.4c-0.914-2.438-1.523-4.876-1.523-7.619
			c0-7.314,2.438-12.495,7.01-15.543s12.19-4.571,22.247-4.571c2.438,0,4.572,0,6.4,0s3.048,0.305,4.267,0.305
			c0-2.743-1.219-4.876-3.353-6.4c-2.133-1.523-6.095-2.438-11.276-2.438c-2.438,0-4.571,0-6.399,0.305
			c-1.829,0.305-3.353,0.609-4.877,0.914c-1.219,0.305-2.438,0.914-3.047,1.219c-0.914,0.305-1.219,0.61-1.524,0.915
			c-0.305-0.305-0.609-0.61-0.914-0.915c-0.609-0.609-0.914-1.219-1.523-1.828s-0.915-1.523-1.22-2.438
			c-0.305-0.914-0.609-1.828-0.609-3.047c0-7.01,7.01-10.362,21.029-10.362c4.571,0,8.838,0.305,13.104,1.219
			c3.962,0.914,7.619,2.134,10.667,4.267c3.047,2.134,5.181,4.571,7.009,7.924c1.829,3.353,2.438,7.619,2.438,12.495v35.657H751.238
			z M732.038,432.457c-0.609-0.305-1.829-0.305-3.048-0.305c-1.523,0-3.353-0.305-6.095-0.305c-2.438,0-4.267,0.305-5.791,0.609
			c-1.523,0.305-2.742,0.914-3.657,1.523c-0.914,0.61-1.523,1.524-1.828,2.438s-0.609,1.829-0.609,2.743
			c0,0.609,0,1.523,0.305,2.133s0.609,1.524,1.523,2.134s1.829,1.219,3.657,1.523c1.524,0.305,3.657,0.609,6.4,0.609
			c2.133,0,3.962,0,5.79-0.305c1.829,0,2.743-0.305,3.353-0.305V432.457z"/>
		<path fill="#003057" d="M779.886,439.162c0.609,0.609,1.828,0.914,3.048,1.828c1.523,0.609,3.353,1.22,5.181,1.829
			s4.267,1.219,7.01,1.523c2.438,0.305,5.181,0.609,8.229,0.609c3.353,0,5.79-0.305,7.314-0.914
			c1.523-0.609,2.438-1.523,2.438-3.048c0-1.523-0.609-2.742-2.133-3.353c-1.524-0.609-3.657-1.219-6.4-1.523l-6.095-0.609
			c-3.048-0.305-6.096-0.914-8.839-1.829c-2.742-0.609-5.485-1.828-7.618-3.352c-2.134-1.524-3.963-3.353-5.182-5.791
			c-1.219-2.438-1.828-5.181-1.828-8.533c0-3.048,0.609-5.79,1.523-8.229c1.219-2.438,2.743-4.571,5.181-6.4
			c2.438-1.828,5.182-3.353,8.839-4.267c3.656-0.914,7.924-1.523,12.8-1.523s9.143,0.305,12.8,0.914s6.705,1.524,9.447,3.048
			c1.524,0.914,2.743,1.828,3.657,3.048c0.915,1.219,1.22,2.438,1.22,4.267c0,1.219-0.306,2.438-0.915,3.353
			c-0.609,0.914-1.219,1.828-1.828,2.438s-1.22,1.219-1.829,1.524c-0.609,0.305-0.914,0.609-1.219,0.609
			c-0.305-0.305-0.914-0.609-1.828-1.22c-1.22-0.609-2.438-1.219-4.268-1.828c-1.828-0.609-3.961-1.219-6.399-1.523
			c-2.438-0.61-5.181-0.61-8.533-0.61c-3.657,0-6.096,0.306-7.314,1.22c-1.523,0.914-2.134,1.828-2.134,3.353
			c0,1.219,0.61,2.438,1.829,2.742c1.219,0.609,3.048,0.914,5.79,1.524l10.667,1.523c2.743,0.305,5.181,0.914,7.924,1.828
			c2.438,0.61,4.571,1.829,6.705,3.353c1.828,1.524,3.353,3.353,4.571,5.486c1.219,2.133,1.828,4.876,1.828,8.229
			c0,6.704-2.438,11.886-7.619,15.543c-5.181,3.657-12.19,5.485-21.028,5.485c-4.571,0-8.838-0.305-12.495-0.914
			s-6.705-1.219-9.447-2.134c-2.743-0.914-4.877-1.828-6.4-2.742c-1.523-0.915-2.743-1.524-3.353-2.134L779.886,439.162z"/>
		<path fill="#003057" d="M211.2,481.828c0-7.618,3.962-11.275,11.886-11.275h40.533c3.657,0,6.095,0.914,7.924,2.438
			c1.523,1.524,2.438,3.657,2.438,6.705c0,2.133-0.305,3.962-0.915,5.79c-0.609,1.829-1.219,3.048-1.523,3.657h-40.229v12.801H262.4
			c3.657,0,6.095,0.914,7.924,2.438c1.524,1.523,2.438,3.657,2.438,6.705c0,2.133-0.305,3.962-0.914,5.79
			c-0.609,1.829-1.219,3.048-1.524,3.657h-39.009v13.104h42.057v18.591H211.2V481.828z"/>
		<path fill="#003057" d="M284.038,515.353c0-4.267,0.914-7.924,2.438-10.972c1.524-3.353,3.657-5.79,6.4-7.924
			c2.743-2.133,6.096-3.657,9.752-4.876c3.657-1.219,7.619-1.524,11.886-1.524s7.924,0.61,11.581,1.524
			c3.657,1.219,7.01,2.743,9.752,4.876c2.743,2.134,4.876,4.876,6.4,7.924c1.524,3.353,2.438,7.01,2.438,10.972v36.876h-19.2
			v-32.305c0-4.267-0.915-7.314-2.743-9.447c-1.829-2.134-4.571-3.048-8.229-3.048c-7.314,0-11.276,4.267-11.276,12.495v32.305
			h-19.2V515.353z"/>
		<path fill="#003057" d="M373.028,529.676c0.305,0.915,0.61,1.829,1.219,2.743s1.524,1.829,2.743,2.438
			c1.219,0.914,2.743,1.523,4.572,1.828c1.829,0.609,4.267,0.609,7.009,0.609c2.133,0,3.962-0.305,5.791-0.609
			s3.352-0.609,4.876-1.219c1.219-0.305,2.438-0.914,3.353-1.219c0.914-0.305,1.523-0.609,1.523-0.915l6.705,13.41
			c-0.609,0.305-1.829,0.914-3.048,1.523c-1.523,0.609-3.353,1.524-5.485,2.134c-2.134,0.609-4.877,1.219-7.924,1.828
			s-6.095,0.914-9.752,0.914c-4.571,0-8.533-0.609-12.495-2.133c-3.962-1.524-7.314-3.657-10.057-6.096
			c-2.743-2.438-5.181-6.095-6.705-10.057c-1.524-3.962-2.438-8.533-2.438-13.41c0-4.876,0.915-9.143,2.438-13.104
			c1.523-3.962,3.962-7.314,7.009-10.057c3.048-2.743,6.4-4.877,10.362-6.4s8.229-2.438,12.8-2.438c4.267,0,8.229,0.61,11.581,1.829
			c3.353,1.219,6.4,2.743,8.533,4.571c2.438,2.134,4.267,4.267,5.486,6.705c1.219,2.438,1.828,5.181,1.828,7.924
			c0,3.047-0.609,5.485-1.523,7.924c-0.914,2.438-2.743,4.267-5.485,6.095c-2.743,1.524-6.4,2.743-10.667,3.657
			c-4.572,0.914-10.362,1.219-17.372,1.219h-4.876V529.676z M372.114,517.485c5.181,0,9.448-0.305,12.495-0.609
			c3.048-0.305,5.181-0.914,6.4-1.523c1.524-0.609,2.438-1.219,2.743-2.134c0.305-0.914,0.609-1.523,0.609-2.438
			c0-1.524-0.609-3.048-2.133-4.267c-1.524-1.22-3.657-1.829-6.705-1.829c-2.133,0-3.962,0.305-5.486,1.219
			c-1.524,0.61-3.048,1.829-3.962,3.048c-1.219,1.22-1.829,2.438-2.438,3.962C372.419,514.438,372.114,515.962,372.114,517.485z"/>
		<path fill="#003057" d="M421.79,514.134c0-3.962,0.61-7.314,1.829-10.362s3.048-5.485,5.485-7.619
			c2.438-2.133,5.182-3.657,8.229-4.571c3.353-1.219,6.705-1.523,10.667-1.523c4.876,0,8.533,0.609,10.972,1.523
			c2.742,0.914,4.571,2.133,5.79,3.353c0.609,0.914,1.219,1.523,1.524,2.438c0.305,0.915,0.609,1.829,0.609,3.048
			s-0.305,2.438-0.609,3.353c-0.306,0.914-0.915,1.828-1.22,2.743c-0.609,0.914-0.914,1.523-1.523,2.133s-0.914,0.914-1.219,1.22
			c-1.22-0.61-3.048-1.22-4.877-1.829c-1.828-0.609-3.962-0.914-6.399-0.914c-3.048,0-5.486,0.914-7.619,2.742
			c-2.134,1.829-3.048,4.572-3.048,8.534v33.828h-19.2v-38.095H421.79z"/>
		<path fill="#003057" d="M478.781,558.02c0.305,0.305,0.914,0.305,1.828,0.914c0.914,0.305,2.438,0.914,3.962,1.219
			c1.524,0.305,3.657,0.914,5.791,1.219c2.133,0.305,4.571,0.609,7.009,0.609c2.438,0,4.877-0.305,7.01-0.914
			c2.134-0.609,3.962-1.523,5.486-2.742c1.523-1.22,2.742-3.048,3.656-4.877c0.915-2.133,1.22-4.571,1.22-7.619v-1.219
			c-0.305,0.305-0.915,0.914-1.829,1.524c-0.914,0.609-2.133,1.523-3.657,2.133c-1.523,0.609-3.047,1.219-5.181,1.829
			c-2.133,0.609-4.267,0.914-6.705,0.914c-4.267,0-8.229-0.609-11.886-1.829c-3.657-1.219-6.704-3.353-9.447-5.79
			c-2.743-2.438-4.571-5.791-6.095-9.447c-1.524-3.657-2.134-7.924-2.134-12.496c0-4.571,0.914-8.838,2.438-12.8
			c1.523-3.962,3.962-7.01,7.009-10.057c3.048-3.048,6.4-4.877,10.667-6.4c3.962-1.523,8.533-2.438,13.409-2.438
			c5.486,0,10.667,0.915,15.238,3.048c4.571,2.134,8.533,5.181,11.581,9.143c1.829,2.438,3.353,5.486,4.267,8.839
			c0.914,3.352,1.524,7.619,1.524,13.104v17.676c0,6.096-0.915,11.581-2.743,15.848c-1.829,4.571-4.267,8.229-7.314,10.972
			s-6.705,5.181-10.972,6.4c-4.267,1.523-8.838,2.133-13.714,2.133c-3.353,0-6.705-0.305-9.753-0.609
			c-3.047-0.305-5.485-0.914-7.924-1.523c-2.133-0.609-4.267-1.22-5.485-1.829c-1.523-0.609-2.438-0.914-3.048-1.219L478.781,558.02
			z M487.924,521.447c0,4.572,1.219,7.924,3.657,10.058c2.438,2.133,5.79,3.353,9.752,3.353s7.01-1.219,9.753-3.657
			c2.438-2.438,3.962-5.791,3.962-9.753s-1.22-7.313-3.962-10.057c-2.438-2.438-5.791-3.962-9.753-3.962
			c-2.133,0-3.657,0.305-5.485,1.219c-1.523,0.609-3.048,1.829-4.267,3.048c-1.22,1.219-2.134,2.743-2.743,4.267
			S487.924,519.619,487.924,521.447z"/>
		<path fill="#003057" d="M550.4,558.629c0.305,0.305,0.914,0.305,2.133,0.914c1.219,0.305,2.438,0.609,3.962,1.219
			c1.524,0.305,3.353,0.609,5.485,0.914c2.134,0.306,3.963,0.306,6.096,0.306c6.096,0,10.362-1.22,13.104-3.962
			c2.743-2.743,3.962-7.01,3.962-13.105c-1.523,1.829-3.657,3.353-7.009,4.267c-3.353,0.915-6.096,1.524-9.144,1.524
			c-3.657,0-7.01-0.305-10.057-1.22c-3.048-0.914-5.791-2.438-8.229-4.267c-2.438-1.828-4.267-4.267-5.486-7.313
			c-1.219-2.743-1.828-6.4-1.828-10.362v-28.038c0-3.048,0.914-5.181,2.742-6.4c1.829-1.219,4.268-1.828,7.314-1.828
			c2.134,0,3.962,0.305,5.791,0.914c1.828,0.609,2.742,0.914,3.353,0.914v30.781c0,3.657,0.914,6.4,2.742,8.229
			c1.829,1.524,4.571,2.438,8.229,2.438s6.4-0.914,8.229-3.048c1.829-2.134,3.048-5.181,3.048-9.447V499.81
			c0-3.048,0.914-5.181,2.743-6.4c1.828-1.219,4.267-1.828,7.314-1.828c2.133,0,3.962,0.305,5.79,0.914s2.743,0.914,3.353,0.914
			v50.286c0,6.096-0.914,11.276-2.438,15.543c-1.523,4.267-3.962,7.619-6.704,10.361c-2.743,2.743-6.4,4.572-10.362,5.791
			s-8.533,1.828-13.409,1.828c-3.353,0-6.705-0.305-9.753-0.609c-3.047-0.305-5.485-0.914-7.619-1.219
			c-2.133-0.609-3.962-0.914-5.485-1.523c-1.219-0.61-2.134-0.915-2.438-0.915L550.4,558.629z"/>
		<path fill="#003057" d="M293.486,578.743c0-7.619,3.962-11.276,11.886-11.276h37.791c3.657,0,6.095,0.914,7.924,2.438
			c1.523,1.524,2.438,3.657,2.438,6.705c0,2.134-0.305,3.962-0.915,5.791c-0.609,1.828-1.219,3.047-1.523,3.656H313.6v13.715h26.819
			c3.657,0,6.095,0.914,7.924,2.438c1.524,1.523,2.438,3.656,2.438,6.704c0,2.134-0.305,3.962-0.914,5.791
			c-0.609,1.828-1.219,3.047-1.524,3.657H313.6v30.78h-19.81v-70.399H293.486z"/>
		<path fill="#003057" d="M379.124,620.8c0,8.229,3.657,12.495,11.276,12.495c7.314,0,11.276-4.267,11.276-12.495v-23.771
			c0-3.048,0.915-5.181,2.743-6.399c1.829-1.22,4.267-1.829,7.314-1.829c2.133,0,3.962,0.305,5.79,0.914
			c1.829,0.61,2.743,0.915,3.353,0.915v34.133c0,4.571-0.914,8.229-2.438,11.581c-1.524,3.353-3.657,6.096-6.4,8.229
			c-2.743,2.134-5.79,3.962-9.752,4.876c-3.657,1.22-7.62,1.524-11.886,1.524s-8.229-0.609-11.886-1.524
			c-3.657-1.219-7.009-2.742-9.752-4.876c-2.743-2.133-4.876-4.876-6.4-8.229s-2.438-7.01-2.438-11.581v-27.429
			c0-3.047,0.914-5.181,2.743-6.399c1.829-1.22,4.267-1.829,7.314-1.829c2.133,0,3.962,0.305,5.791,0.914
			c1.829,0.61,2.743,0.915,3.353,0.915V620.8z"/>
		<path fill="#003057" d="M428.8,579.048c0-3.048,0.914-5.181,2.743-6.4c1.828-1.219,4.267-1.828,7.314-1.828
			c2.133,0,3.962,0.305,5.79,0.914c1.829,0.609,2.743,0.914,3.353,0.914V588.8h13.714c3.657,0,6.096,0.609,7.619,2.134
			c1.524,1.523,2.134,3.657,2.134,6.399c0,2.134-0.305,3.962-0.914,5.791c-0.609,1.828-1.22,3.048-1.524,3.657H448v18.59
			c0,1.829,0.305,3.353,0.914,4.267c0.609,0.915,1.219,1.829,2.134,2.438c0.914,0.609,1.828,0.914,2.742,1.219
			c1.22,0.305,2.134,0.305,3.353,0.305c2.134,0,4.267-0.305,6.096-0.914c1.828-0.609,3.047-1.219,3.962-1.828l7.619,13.104
			c-0.61,0.609-1.829,1.219-3.048,2.134c-1.219,0.914-3.048,1.523-4.876,2.133c-1.829,0.609-3.962,1.219-6.4,1.828
			c-2.438,0.61-4.876,0.915-7.619,0.915c-7.314,0-13.409-1.829-17.371-5.791c-4.267-3.962-6.4-9.143-6.4-15.848v-50.285H428.8z"/>
		<path fill="#003057" d="M498.896,620.8c0,8.229,3.657,12.495,11.276,12.495c7.313,0,11.275-4.267,11.275-12.495v-23.771
			c0-3.048,0.915-5.181,2.743-6.399c1.829-1.22,4.267-1.829,7.314-1.829c2.133,0,3.962,0.305,5.79,0.914
			c1.829,0.61,2.743,0.915,3.353,0.915v34.133c0,4.571-0.914,8.229-2.438,11.581c-1.523,3.353-3.656,6.096-6.399,8.229
			c-2.743,2.134-5.791,3.962-9.753,4.876c-3.656,1.22-7.619,1.524-11.886,1.524s-8.229-0.609-11.886-1.524
			c-3.656-0.914-7.009-2.742-9.752-4.876c-2.743-2.133-4.876-4.876-6.4-8.229c-1.523-3.353-2.438-7.01-2.438-11.581v-27.429
			c0-3.047,0.914-5.181,2.742-6.399c1.829-1.22,4.268-1.829,7.314-1.829c2.134,0,3.962,0.305,5.791,0.914
			c1.828,0.61,2.742,0.915,3.353,0.915V620.8L498.896,620.8z"/>
		<path fill="#003057" d="M551.314,611.048c0-3.962,0.609-7.314,1.828-10.362c1.22-3.048,3.048-5.485,5.486-7.619
			c2.438-2.133,5.181-3.657,8.229-4.571c3.047-0.914,6.704-1.523,10.666-1.523c4.877,0,8.533,0.609,10.972,1.523
			c2.743,0.914,4.571,2.134,5.791,3.353c0.609,0.914,1.219,1.523,1.523,2.438c0.305,0.914,0.609,1.828,0.609,3.047
			c0,1.22-0.305,2.438-0.609,3.353s-0.914,1.829-1.219,2.743c-0.61,0.914-0.915,1.523-1.524,2.133
			c-0.609,0.61-0.914,0.915-1.219,1.22c-1.219-0.609-3.048-1.22-4.876-1.829c-1.829-0.609-3.962-0.914-6.4-0.914
			c-3.048,0-5.485,0.914-7.619,2.743c-2.133,1.828-3.048,4.571-3.048,8.533v33.828h-19.199v-38.095H551.314z"/>
		<path fill="#003057" d="M619.886,626.591c0.305,0.914,0.609,1.828,1.219,2.742c0.609,0.915,1.524,1.829,2.743,2.438
			c1.219,0.914,2.743,1.523,4.571,1.828c1.829,0.61,4.267,0.61,7.01,0.61c2.133,0,3.962-0.306,5.79-0.61
			c1.829-0.305,3.353-0.609,4.877-1.219c1.219-0.305,2.438-0.914,3.352-1.219c0.915-0.305,1.524-0.609,1.524-0.914l6.704,13.409
			c-0.609,0.305-1.828,0.914-3.047,1.523c-1.524,0.61-3.353,1.524-5.486,2.134c-2.133,0.609-4.876,1.219-7.924,1.828
			c-3.047,0.609-6.095,0.915-9.752,0.915c-4.571,0-8.533-0.61-12.495-2.134s-7.314-3.657-10.058-6.095
			c-2.743-2.438-5.181-6.096-6.705-10.058c-1.523-3.962-2.438-8.533-2.438-13.409c0-4.877,0.914-9.144,2.438-13.105
			c1.524-3.962,3.963-7.313,7.01-10.057c3.048-2.743,6.4-4.876,10.362-6.4c3.962-1.523,8.229-2.438,12.8-2.438
			c4.267,0,8.229,0.609,11.581,1.828s6.399,2.743,8.533,4.571c2.438,2.134,4.267,4.267,5.485,6.705
			c1.22,2.438,1.829,5.181,1.829,7.924c0,3.048-0.609,5.485-1.524,7.924c-0.914,2.438-2.742,4.267-5.485,6.095
			c-2.743,1.524-6.399,2.743-10.667,3.657c-4.571,0.915-10.361,1.22-17.371,1.22h-4.876V626.591z M618.972,614.4
			c5.181,0,9.447-0.305,12.495-0.609c3.048-0.306,5.181-0.915,6.4-1.524c1.523-0.609,2.438-1.219,2.742-2.133
			c0.305-0.915,0.609-1.524,0.609-2.438c0-1.523-0.609-3.048-2.133-4.267c-1.524-1.219-3.657-1.829-6.705-1.829
			c-2.133,0-3.962,0.306-5.485,1.22c-1.524,0.609-3.048,1.828-3.962,3.048c-1.219,1.219-1.829,2.438-2.438,3.961
			C619.581,611.353,618.972,612.876,618.972,614.4z"/>
	</g>
	<g>
		<g>
			<g>
				<path fill="#58A086" d="M615.924,265.448c0,0,23.771,5.791,32.305,8.838l11.886,63.695c0.609,1.524-0.609,3.353-2.438,3.048
					l-16.762-2.438c-1.523-0.305-3.047,1.219-2.438,2.742l14.019,50.286c0.609,2.743-3.048,4.267-4.267,1.523l-38.705-78.323
					c-0.914-1.524,0.61-3.353,2.134-3.353l15.238,1.523c1.523,0.305,2.742-1.523,2.438-3.047l-7.924-25.905
					C621.104,283.124,617.447,272.762,615.924,265.448z"/>
			</g>
			<g>
				<path fill="#00B796" d="M523.276,259.962c0,0-16.762,17.676-23.771,23.467l-60.952-21.638c-1.829-0.305-2.438-2.438-1.524-3.657
					l10.362-13.41c0.914-1.219,0.305-3.352-1.219-3.657l-50.896-13.105c-2.743-0.609-2.133-4.571,0.609-4.571l87.162,5.485
					c1.828,0,2.742,2.134,1.828,3.657l-8.838,12.495c-0.914,1.219-0.305,3.048,1.219,3.657l26.515,6.095
					C505.6,255.695,516.267,257.829,523.276,259.962z"/>
			</g>
			<g>
				<path fill="#00B796" d="M519.01,223.695c0,0-24.381,2.743-33.22,2.743l-32.914-55.771c-1.219-1.219-0.305-3.352,1.22-3.657
					l16.762-3.657c1.523-0.305,2.438-2.133,1.523-3.657l-30.477-42.667c-1.523-2.133,1.524-4.876,3.353-3.047l63.086,60.343
					c1.219,1.219,0.609,3.353-0.914,3.962l-14.934,3.962c-1.523,0.305-2.133,2.133-1.219,3.657l16.152,21.638
					C508.343,209.066,515.048,217.295,519.01,223.695z"/>
			</g>
			<g>
				<path fill="#00B796" d="M539.124,193.219c0,0-20.419-13.41-27.429-19.2l10.667-63.695c0-1.829,1.828-2.743,3.352-2.133
					l15.238,7.619c1.524,0.914,3.353-0.305,3.353-1.829l3.962-52.114c0.305-2.743,4.267-2.743,4.571,0l9.448,86.552
					c0.305,1.829-1.524,3.048-3.353,2.438l-13.715-6.705c-1.523-0.609-3.047,0.305-3.352,1.829l-1.524,27.124
					C540.343,174.934,540.343,185.6,539.124,193.219z"/>
			</g>
			<g>
				<path fill="#00B796" d="M574.172,182.552c0,0-7.01-23.466-8.534-32.305l49.067-42.057c1.219-1.219,3.352-0.914,3.962,0.609
					l6.399,15.848c0.609,1.524,2.743,1.829,3.657,0.61l36.571-37.486c1.829-2.133,5.182,0.609,3.657,2.743l-48.457,72.534
					c-0.914,1.523-3.353,1.219-3.962-0.305l-6.4-14.02c-0.609-1.523-2.742-1.828-3.656-0.609l-18.591,19.81
					C586.972,169.448,579.962,177.676,574.172,182.552z"/>
			</g>
			<g>
				<path fill="#00B796" d="M608,197.181c0,0,9.752-22.248,14.324-30.171l64.609-0.61c1.828-0.305,3.047,1.219,2.742,3.048
					l-5.181,16.152c-0.609,1.524,0.914,3.047,2.438,3.047l52.114-5.181c2.742-0.305,3.657,3.657,0.914,4.571l-83.81,24.381
					c-1.828,0.609-3.353-1.219-2.743-2.743l3.962-14.628c0.305-1.524-0.914-3.048-2.438-2.743l-26.819,3.048
					C625.98,195.048,615.314,196.876,608,197.181z"/>
			</g>
			<g>
				<path fill="#00B796" d="M624.457,229.791c0,0,21.943-10.972,30.477-14.019l49.98,41.143c1.524,0.915,1.524,3.048,0,3.962
					l-14.323,9.143c-1.524,0.915-1.524,3.048,0,3.962l43.275,29.562c2.438,1.524,0.306,5.181-2.133,3.962l-79.848-35.048
					c-1.523-0.609-1.829-3.047-0.305-3.962l12.495-8.533c1.219-0.914,1.219-3.048,0-3.657l-22.857-14.933
					C639.391,240.152,630.248,234.667,624.457,229.791z"/>
			</g>
			<g>
				<path fill="#00B796" d="M615.924,265.448c0,0,23.771,5.791,32.305,8.838l11.886,63.695c0.609,1.524-0.609,3.353-2.438,3.048
					l-16.762-2.438c-1.523-0.305-3.047,1.219-2.438,2.742l14.019,50.286c0.609,2.743-3.048,4.267-4.267,1.523l-38.705-78.323
					c-0.914-1.524,0.61-3.353,2.134-3.353l15.238,1.523c1.523,0.305,2.742-1.523,2.438-3.047l-7.924-25.905
					C621.104,283.124,617.447,272.762,615.924,265.448z"/>
			</g>
		</g>
		<path fill="#003057" d="M576.914,190.171c-25.6-3.657-49.066,12.8-52.724,38.705c-1.828,12.8,1.829,24.991,8.838,34.438h75.276
			c4.571-6.095,7.619-13.41,8.838-21.638C620.8,215.771,602.819,193.524,576.914,190.171z"/>
	</g>
	<g>
		<g>
			<path fill="#003057" d="M767.695,402.286l-13.104-5.182c2.742-5.181,5.79-11.886,8.229-19.505
				c2.133-6.399,3.353-12.495,4.267-17.676c0.609,0,1.219,0,1.828,0c0.914,0,1.829,0,2.743,0.305s2.133,0.609,3.353,1.219
				c1.219,0.609,2.438,1.22,3.353,2.134c2.133,1.828,3.047,3.962,3.352,5.79c0,1.829,0,1.829-0.609,6.096
				c-0.609,3.048-1.219,5.485-3.657,10.057C774.4,393.447,770.743,398.629,767.695,402.286z"/>
		</g>
	</g>
</g>
</svg>
